<svg width="48" height="48" viewBox="0 0 48 48" fill="none" xmlns="http://www.w3.org/2000/svg">
<path d="M45 37.2965C45 41.5552 41.5829 45 37.3585 45H10.6415C6.43585 45 3 41.5552 3 37.2965V10.6845C3 6.44479 6.41708 3 10.6415 3H37.3585C41.5829 3 45 6.44479 45 10.6845V37.2965Z" fill="#30A636"/>
<path d="M35.8137 6.57446H11.2925C8.15646 6.57446 5.625 9.14446 5.625 12.3046V25.8779C5.625 29.0381 8.15646 31.6081 11.2925 31.6081H19.737L22.6274 36.3292C22.6274 36.3292 22.6652 36.3863 22.7218 36.4625C22.8918 36.748 23.1941 36.9574 23.5719 36.9574C23.9309 36.9574 24.2331 36.748 24.4032 36.4625C24.4787 36.3863 24.4976 36.3292 24.4976 36.3292L27.388 31.6081H35.8325C38.9496 31.6081 41.5 29.0381 41.5 25.8779V12.3046C41.4811 9.14446 38.9308 6.57446 35.8137 6.57446Z" fill="white"/>
<path d="M13.9815 16.4581C13.9815 16.4581 13.0185 16.458 12.1481 17.3697V13.7231H10V23.3151H12.1667V22.562C12.1667 22.562 12.6852 23.5529 13.9815 23.5529C13.9815 23.5529 17 23.434 17 19.9658C17 19.9658 16.8889 16.4581 13.9815 16.4581ZM13.5 21.5117C12.7407 21.5117 12.1111 20.8577 12.1111 20.0451C12.1111 19.2326 12.7222 18.5588 13.5 18.5588C14.2593 18.5588 14.8889 19.2128 14.8889 20.0451C14.8889 20.8577 14.2593 21.5117 13.5 21.5117Z" fill="#EC6D16"/>
<path d="M17.875 13.7231V15.7492C17.875 15.7492 18.7181 15.713 18.7181 17.4857V22.6593H20.4999V16.9973C20.4999 17.0154 20.5635 13.7231 17.875 13.7231Z" fill="#EC6D16"/>
<path d="M25.712 16.4041C25.712 16.4041 22.2504 16.4041 22.2504 19.9986C22.2504 19.9986 22.1422 23.553 25.712 23.553C25.712 23.553 29.2457 23.553 29.2457 19.9986C29.2638 19.9986 29.3719 16.4041 25.712 16.4041ZM25.712 21.4846C24.9728 21.4846 24.3598 20.8219 24.3598 19.9986C24.3598 19.1753 24.9548 18.4925 25.712 18.4925C26.4512 18.4925 27.0642 19.1552 27.0642 19.9986C27.0642 20.8219 26.4692 21.4846 25.712 21.4846Z" fill="#EC6D16"/>
<path d="M34.997 16.6122V17.2348C34.997 17.2348 34.381 16.4047 33.1863 16.4047C33.1863 16.4047 30.125 16.2726 30.125 19.7628C30.125 19.7628 30.0877 23.0078 33.1117 23.0078C33.1117 23.0078 34.3437 23.0644 35.0157 22.1777V22.687C35.0157 22.687 35.165 24.2906 33.6343 24.2906H33.1117V26.2338H33.9517C33.9517 26.2338 37.125 26.2716 37.125 22.8191V16.6311H34.997V16.6122ZM33.709 21.1778C32.9437 21.1778 32.309 20.5552 32.309 19.7817C32.309 19.0082 32.925 18.3668 33.709 18.3668C34.493 18.3668 35.109 18.9893 35.109 19.7817C35.0903 20.5552 34.4743 21.1778 33.709 21.1778Z" fill="#EC6D16"/>
</svg>
