<svg width="49" height="49" viewBox="0 0 49 49" fill="none" xmlns="http://www.w3.org/2000/svg">
<rect x="3.5" y="3.03125" width="42" height="42.4375" rx="9.09375" fill="url(#paint0_radial_5_125)"/>
<rect x="3.5" y="3.03125" width="42" height="42.4375" rx="9.09375" fill="url(#paint1_radial_5_125)"/>
<rect x="3.5" y="3.03125" width="42" height="42.4375" rx="9.09375" fill="url(#paint2_radial_5_125)"/>
<path d="M35 15.9141C35 17.1696 33.9926 18.1875 32.75 18.1875C31.5074 18.1875 30.5 17.1696 30.5 15.9141C30.5 14.6585 31.5074 13.6406 32.75 13.6406C33.9926 13.6406 35 14.6585 35 15.9141Z" fill="white"/>
<path fill-rule="evenodd" clip-rule="evenodd" d="M24.5 31.8281C28.6421 31.8281 32 28.4353 32 24.25C32 20.0647 28.6421 16.6719 24.5 16.6719C20.3579 16.6719 17 20.0647 17 24.25C17 28.4353 20.3579 31.8281 24.5 31.8281ZM24.5 28.7969C26.9853 28.7969 29 26.7612 29 24.25C29 21.7388 26.9853 19.7031 24.5 19.7031C22.0147 19.7031 20 21.7388 20 24.25C20 26.7612 22.0147 28.7969 24.5 28.7969Z" fill="white"/>
<path fill-rule="evenodd" clip-rule="evenodd" d="M9.5 23.6438C9.5 18.5508 9.5 16.0043 10.4809 14.059C11.3438 12.3479 12.7206 10.9568 14.4141 10.0849C16.3393 9.09375 18.8595 9.09375 23.9 9.09375H25.1C30.1405 9.09375 32.6607 9.09375 34.5859 10.0849C36.2794 10.9568 37.6562 12.3479 38.5191 14.059C39.5 16.0043 39.5 18.5508 39.5 23.6438V24.8562C39.5 29.9492 39.5 32.4957 38.5191 34.441C37.6562 36.1521 36.2794 37.5432 34.5859 38.4151C32.6607 39.4062 30.1405 39.4062 25.1 39.4062H23.9C18.8595 39.4062 16.3393 39.4062 14.4141 38.4151C12.7206 37.5432 11.3438 36.1521 10.4809 34.441C9.5 32.4957 9.5 29.9492 9.5 24.8562V23.6438ZM23.9 12.125H25.1C27.6697 12.125 29.4166 12.1274 30.7669 12.2388C32.0821 12.3474 32.7547 12.5442 33.2239 12.7858C34.3529 13.367 35.2708 14.2944 35.846 15.4352C36.0851 15.9093 36.2799 16.5889 36.3873 17.9178C36.4977 19.2822 36.5 21.0472 36.5 23.6438V24.8562C36.5 27.4528 36.4977 29.2178 36.3873 30.5822C36.2799 31.9111 36.0851 32.5907 35.846 33.0648C35.2708 34.2056 34.3529 35.133 33.2239 35.7142C32.7547 35.9558 32.0821 36.1526 30.7669 36.2612C29.4166 36.3726 27.6697 36.375 25.1 36.375H23.9C21.3303 36.375 19.5834 36.3726 18.2331 36.2612C16.9179 36.1526 16.2453 35.9558 15.7761 35.7142C14.6471 35.133 13.7292 34.2056 13.154 33.0648C12.9149 32.5907 12.7201 31.9111 12.6127 30.5822C12.5023 29.2178 12.5 27.4528 12.5 24.8562V23.6438C12.5 21.0472 12.5023 19.2822 12.6127 17.9178C12.7201 16.5889 12.9149 15.9093 13.154 15.4352C13.7292 14.2944 14.6471 13.367 15.7761 12.7858C16.2453 12.5442 16.9179 12.3474 18.2331 12.2388C19.5834 12.1274 21.3303 12.125 23.9 12.125Z" fill="white"/>
<defs>
<radialGradient id="paint0_radial_5_125" cx="0" cy="0" r="1" gradientUnits="userSpaceOnUse" gradientTransform="translate(18.5 34.8594) rotate(-55.6529) scale(38.5499 38.4068)">
<stop stop-color="#B13589"/>
<stop offset="0.79309" stop-color="#C62F94"/>
<stop offset="1" stop-color="#8A3AC8"/>
</radialGradient>
<radialGradient id="paint1_radial_5_125" cx="0" cy="0" r="1" gradientUnits="userSpaceOnUse" gradientTransform="translate(17 46.9844) rotate(-65.3621) scale(34.1823 33.953)">
<stop stop-color="#E0E8B7"/>
<stop offset="0.444662" stop-color="#FB8A2E"/>
<stop offset="0.71474" stop-color="#E2425C"/>
<stop offset="1" stop-color="#E2425C" stop-opacity="0"/>
</radialGradient>
<radialGradient id="paint2_radial_5_125" cx="0" cy="0" r="1" gradientUnits="userSpaceOnUse" gradientTransform="translate(1.25 4.54687) rotate(-8.21364) scale(58.3485 12.6049)">
<stop offset="0.156701" stop-color="#406ADC"/>
<stop offset="0.467799" stop-color="#6A45BE"/>
<stop offset="1" stop-color="#6A45BE" stop-opacity="0"/>
</radialGradient>
</defs>
</svg>
