<svg width="48" height="48" viewBox="0 0 48 48" fill="none" xmlns="http://www.w3.org/2000/svg">
<mask id="mask0_7_219" style="mask-type:luminance" maskUnits="userSpaceOnUse" x="3" y="3" width="42" height="42">
<path d="M45 3H3V45H45V3Z" fill="white"/>
</mask>
<g mask="url(#mask0_7_219)">
<path d="M44.9816 41.639C44.9816 43.4938 43.4757 44.9997 41.6209 44.9997H6.36074C4.5059 44.9997 3 43.4938 3 41.639V6.3788C3 4.52397 4.5059 3.01807 6.36074 3.01807H41.6209C43.4757 3.01807 44.9816 4.52397 44.9816 6.3788V41.639Z" fill="#FFE500"/>
</g>
<path d="M24.252 9.54614C15.3762 9.54614 8.20239 15.3532 8.20239 22.5278C8.20239 27.136 11.1854 31.1823 15.6507 33.4864L14.1318 39.2747C14.0769 39.4433 14.1135 39.6494 14.2416 39.7618C14.3331 39.8555 14.4429 39.8929 14.571 39.8929C14.6625 39.8929 14.7723 39.8555 14.8455 39.7805L21.3422 35.2847C22.2938 35.4158 23.2455 35.5095 24.2337 35.5095C33.0912 35.5095 40.2833 29.7024 40.2833 22.5278C40.2833 15.3532 33.1095 9.54614 24.252 9.54614Z" fill="#402420"/>
<path d="M13.7249 20.7256H11.8426C11.5877 20.7256 11.3721 20.6703 11.176 20.5596C10.9799 20.4489 10.8819 20.2829 10.8231 20.0799C10.8035 20.0246 10.8035 19.9692 10.8035 19.8954C10.8035 19.6372 10.9015 19.4343 11.0976 19.3051C11.2936 19.1575 11.5289 19.0837 11.8426 19.0837H17.5678C17.8227 19.0837 18.0383 19.1391 18.2344 19.2498C18.4305 19.3605 18.5285 19.508 18.5873 19.7294C18.5873 19.7848 18.6069 19.8401 18.6069 19.8954C18.6069 20.1537 18.5089 20.3566 18.3128 20.5042C18.1168 20.6518 17.8815 20.7256 17.5874 20.7256H15.7051V26.795C15.7051 27.0901 15.6267 27.3299 15.4306 27.496C15.2542 27.6805 14.9993 27.7542 14.7052 27.7542C14.4503 27.7542 14.2542 27.6805 14.0778 27.5698C13.9013 27.4406 13.8033 27.2562 13.7445 27.0348C13.7249 26.961 13.7249 26.8687 13.7249 26.7765V20.7256Z" fill="#FFE500"/>
<path d="M18.7439 18.854C18.8221 18.615 18.9395 18.4557 19.096 18.3562C19.2524 18.2566 19.448 18.2168 19.7022 18.2168H20.1716C20.4259 18.2168 20.641 18.2765 20.817 18.3761C20.993 18.4756 21.1299 18.6947 21.2277 18.9933L23.6137 26.042C23.692 26.261 23.7506 26.4402 23.7702 26.5995C23.7898 26.6991 23.8093 26.7787 23.8093 26.8384C23.8093 27.0973 23.7115 27.3163 23.5355 27.4955C23.3595 27.6747 23.1444 27.7544 22.8706 27.7544C22.4207 27.7544 22.1274 27.5552 21.9905 27.1769L21.482 25.6438H18.2941L17.7856 27.1769C17.6682 27.5552 17.3749 27.7544 16.9055 27.7544C16.6708 27.7544 16.4752 27.6946 16.3188 27.5752C16.1623 27.4557 16.0645 27.2765 16.0254 27.0575C16.0059 26.9977 16.0059 26.9181 16.0059 26.8384C16.0059 26.7389 16.0254 26.6194 16.0645 26.4601C16.1036 26.3207 16.1428 26.1614 16.2014 26.0221L18.7439 18.854ZM19.9369 20.4867H19.9174L18.7635 24.1703H21.0713L19.9369 20.4867Z" fill="#FFE500"/>
<path d="M23.8092 20.039C23.8092 19.7451 23.9032 19.5246 24.0723 19.3409C24.2414 19.1756 24.4669 19.0837 24.7675 19.0837C25.0118 19.0837 25.2185 19.1572 25.3688 19.2858C25.5379 19.4144 25.6319 19.5981 25.6883 19.8185C25.7071 19.892 25.7071 19.9839 25.7071 20.0573V26.101H28.8827C29.1269 26.101 29.3524 26.1561 29.5215 26.2663C29.6907 26.3765 29.8034 26.5418 29.841 26.7439C29.8598 26.799 29.8598 26.8541 29.8786 26.9276C29.8786 27.1848 29.7846 27.3869 29.5967 27.5338C29.4088 27.6808 29.1833 27.7542 28.8827 27.7542H24.9178C24.6172 27.7542 24.3917 27.6991 24.2038 27.5706C24.0159 27.4603 23.9032 27.2583 23.8468 27.0011C23.828 26.8909 23.8092 26.7623 23.8092 26.6153V20.039Z" fill="#FFE500"/>
<path d="M29.8787 20.023C29.8787 19.734 29.9727 19.5173 30.1418 19.3366C30.311 19.1741 30.5366 19.0837 30.8374 19.0837C31.0817 19.0837 31.2697 19.156 31.4389 19.2824C31.6081 19.4089 31.7021 19.5895 31.7584 19.8063C31.7772 19.8785 31.7772 19.9689 31.7772 20.0411V22.8048L34.7661 19.5173C34.8977 19.3728 35.0105 19.2824 35.1233 19.2102C35.236 19.1379 35.3676 19.1199 35.518 19.1199C35.7248 19.1199 35.9128 19.1741 36.082 19.2824C36.2511 19.3908 36.3451 19.5353 36.4015 19.734C36.4015 19.734 36.4015 19.7702 36.4203 19.8063C36.4203 19.8424 36.4203 19.8605 36.4203 19.8785C36.4203 20.005 36.3827 20.1314 36.3263 20.2217C36.2699 20.3301 36.1947 20.4204 36.1007 20.5288L34.1458 22.57L36.4579 26.0743L36.5331 26.1827C36.6835 26.4175 36.7775 26.5982 36.7963 26.7066C36.7963 26.7066 36.7963 26.7427 36.8151 26.7608C36.8151 26.7969 36.8151 26.8149 36.8151 26.8149C36.8151 27.1401 36.7211 27.3749 36.5331 27.5194C36.3451 27.6639 36.1195 27.7362 35.8376 27.7362C35.6496 27.7362 35.4804 27.7001 35.3676 27.6459C35.236 27.5736 35.1233 27.4472 34.9917 27.2485L32.8111 23.8706L31.7772 24.9183L31.796 26.8149C31.796 27.104 31.7021 27.3388 31.5329 27.5014C31.3637 27.682 31.1381 27.7542 30.8374 27.7542C30.593 27.7542 30.3862 27.682 30.2358 27.5736C30.0666 27.4472 29.9727 27.2665 29.9163 27.0498C29.8975 26.9775 29.8975 26.8872 29.8975 26.7969V20.023H29.8787Z" fill="#FFE500"/>
</svg>
