<svg width="49" height="49" viewBox="0 0 49 49" fill="none" xmlns="http://www.w3.org/2000/svg">
<path d="M18.6173 42.4375C13.7143 42.4375 9.14379 41.0114 5.29688 38.5509C8.56304 38.7622 14.3271 38.2561 17.9123 34.8363C12.5189 34.5888 10.0866 30.4524 9.76939 28.6847C10.2276 28.8614 12.4132 29.0736 13.647 28.5786C7.44285 27.023 6.49108 21.5784 6.70258 19.9168C7.86585 20.7299 9.83989 21.0128 10.6154 20.9421C4.8343 16.8056 6.91409 10.5832 7.93636 9.23978C12.0851 14.9875 18.3028 18.2156 25.9948 18.3952C25.8498 17.7591 25.7732 17.0969 25.7732 16.4167C25.7732 11.5353 29.7188 7.57812 34.5859 7.57812C37.1289 7.57812 39.4203 8.65839 41.0288 10.3863C42.7281 9.98813 45.2856 9.05596 46.5359 8.24986C45.9057 10.5125 43.9437 12.4001 42.7569 13.0997C42.7668 13.1235 42.7473 13.0758 42.7569 13.0997C43.7994 12.942 46.6201 12.3999 47.7344 11.6439C47.1833 12.915 45.1032 15.0285 43.3962 16.2118C43.7138 30.2186 32.9972 42.4375 18.6173 42.4375Z" fill="#47ACDF"/>
</svg>
