<svg width="359" height="218" viewBox="0 0 359 218" fill="none" xmlns="http://www.w3.org/2000/svg">
<path d="M29.867 45H17.9273V11.3191H29.9656C33.3535 11.3191 36.2698 11.9934 38.7148 13.3419C41.1597 14.6795 43.04 16.6037 44.3557 19.1144C45.6823 21.6251 46.3456 24.6292 46.3456 28.1267C46.3456 31.6351 45.6823 34.6501 44.3557 37.1718C43.04 39.6935 41.1488 41.6286 38.6819 42.9772C36.226 44.3257 33.2877 45 29.867 45ZM25.0484 38.8986H29.5709C31.676 38.8986 33.4467 38.5259 34.8829 37.7803C36.3301 37.0238 37.4156 35.8562 38.1392 34.2774C38.8738 32.6876 39.241 30.6374 39.241 28.1267C39.241 25.6379 38.8738 23.6041 38.1392 22.0253C37.4156 20.4465 36.3356 19.2843 34.8994 18.5388C33.4631 17.7932 31.6924 17.4205 29.5874 17.4205H25.0484V38.8986ZM62.9024 45.4934C60.3478 45.4934 58.1386 44.9507 56.2747 43.8652C54.4219 42.7689 52.9911 41.2449 51.9824 39.2933C50.9737 37.3308 50.4694 35.0558 50.4694 32.4683C50.4694 29.8589 50.9737 27.5785 51.9824 25.6269C52.9911 23.6644 54.4219 22.1404 56.2747 21.055C58.1386 19.9586 60.3478 19.4104 62.9024 19.4104C65.457 19.4104 67.6607 19.9586 69.5136 21.055C71.3774 22.1404 72.8137 23.6644 73.8224 25.6269C74.831 27.5785 75.3354 29.8589 75.3354 32.4683C75.3354 35.0558 74.831 37.3308 73.8224 39.2933C72.8137 41.2449 71.3774 42.7689 69.5136 43.8652C67.6607 44.9507 65.457 45.4934 62.9024 45.4934ZM62.9353 40.0663C64.0974 40.0663 65.0677 39.7374 65.8462 39.0795C66.6246 38.4107 67.2112 37.5007 67.6059 36.3495C68.0115 35.1983 68.2144 33.8881 68.2144 32.419C68.2144 30.9498 68.0115 29.6397 67.6059 28.4885C67.2112 27.3373 66.6246 26.4273 65.8462 25.7585C65.0677 25.0897 64.0974 24.7553 62.9353 24.7553C61.7621 24.7553 60.7754 25.0897 59.975 25.7585C59.1856 26.4273 58.5881 27.3373 58.1825 28.4885C57.7878 29.6397 57.5904 30.9498 57.5904 32.419C57.5904 33.8881 57.7878 35.1983 58.1825 36.3495C58.5881 37.5007 59.1856 38.4107 59.975 39.0795C60.7754 39.7374 61.7621 40.0663 62.9353 40.0663ZM84.2408 45L77.3664 19.7393H84.4546L88.3686 36.7113H88.5989L92.6774 19.7393H99.634L103.778 36.6127H103.992L107.84 19.7393H114.912L108.054 45H100.637L96.2955 29.1134H95.983L91.6414 45H84.2408ZM125.655 30.3962V45H118.649V19.7393H125.326V24.1961H125.622C126.182 22.727 127.119 21.5648 128.435 20.7096C129.75 19.8435 131.346 19.4104 133.22 19.4104C134.975 19.4104 136.504 19.7941 137.809 20.5616C139.113 21.3291 140.128 22.4255 140.851 23.8508C141.575 25.2651 141.937 26.9535 141.937 28.916V45H134.931V30.1659C134.942 28.62 134.547 27.414 133.747 26.5479C132.946 25.6708 131.844 25.2322 130.441 25.2322C129.498 25.2322 128.665 25.435 127.941 25.8407C127.229 26.2464 126.669 26.8384 126.264 27.6168C125.869 28.3843 125.666 29.3107 125.655 30.3962ZM154.464 11.3191V45H147.458V11.3191H154.464ZM171.49 45.4934C168.935 45.4934 166.726 44.9507 164.862 43.8652C163.009 42.7689 161.578 41.2449 160.57 39.2933C159.561 37.3308 159.057 35.0558 159.057 32.4683C159.057 29.8589 159.561 27.5785 160.57 25.6269C161.578 23.6644 163.009 22.1404 164.862 21.055C166.726 19.9586 168.935 19.4104 171.49 19.4104C174.044 19.4104 176.248 19.9586 178.101 21.055C179.965 22.1404 181.401 23.6644 182.41 25.6269C183.418 27.5785 183.923 29.8589 183.923 32.4683C183.923 35.0558 183.418 37.3308 182.41 39.2933C181.401 41.2449 179.965 42.7689 178.101 43.8652C176.248 44.9507 174.044 45.4934 171.49 45.4934ZM171.523 40.0663C172.685 40.0663 173.655 39.7374 174.433 39.0795C175.212 38.4107 175.798 37.5007 176.193 36.3495C176.599 35.1983 176.802 33.8881 176.802 32.419C176.802 30.9498 176.599 29.6397 176.193 28.4885C175.798 27.3373 175.212 26.4273 174.433 25.7585C173.655 25.0897 172.685 24.7553 171.523 24.7553C170.349 24.7553 169.363 25.0897 168.562 25.7585C167.773 26.4273 167.175 27.3373 166.77 28.4885C166.375 29.6397 166.178 30.9498 166.178 32.419C166.178 33.8881 166.375 35.1983 166.77 36.3495C167.175 37.5007 167.773 38.4107 168.562 39.0795C169.363 39.7374 170.349 40.0663 171.523 40.0663ZM195.681 45.4769C194.07 45.4769 192.633 45.1973 191.373 44.6382C190.112 44.0681 189.114 43.2293 188.379 42.122C187.656 41.0037 187.294 39.6113 187.294 37.9448C187.294 36.5414 187.552 35.3628 188.067 34.4089C188.582 33.4551 189.284 32.6876 190.172 32.1065C191.06 31.5254 192.069 31.0869 193.198 30.7909C194.338 30.4948 195.533 30.2865 196.783 30.1659C198.252 30.0124 199.436 29.8699 200.335 29.7383C201.235 29.5958 201.887 29.3875 202.293 29.1134C202.698 28.8393 202.901 28.4336 202.901 27.8964V27.7977C202.901 26.7562 202.572 25.9503 201.914 25.3802C201.267 24.8101 200.346 24.525 199.151 24.525C197.891 24.525 196.887 24.8046 196.142 25.3638C195.396 25.912 194.903 26.6027 194.662 27.4359L188.182 26.9097C188.511 25.3747 189.158 24.0481 190.123 22.9298C191.087 21.8005 192.332 20.9344 193.856 20.3314C195.391 19.7174 197.167 19.4104 199.184 19.4104C200.588 19.4104 201.931 19.5749 203.213 19.9038C204.507 20.2327 205.653 20.7425 206.651 21.4332C207.659 22.1239 208.454 23.012 209.035 24.0974C209.616 25.1719 209.907 26.4601 209.907 27.9622V45H203.263V41.4971H203.065C202.66 42.2864 202.117 42.9827 201.437 43.5857C200.758 44.1777 199.941 44.6437 198.987 44.9836C198.033 45.3125 196.931 45.4769 195.681 45.4769ZM197.688 40.6419C198.718 40.6419 199.628 40.439 200.418 40.0334C201.207 39.6168 201.827 39.0576 202.276 38.3559C202.726 37.6542 202.95 36.8593 202.95 35.9713V33.2906C202.731 33.4331 202.43 33.5647 202.046 33.6853C201.673 33.795 201.251 33.8991 200.78 33.9978C200.308 34.0855 199.837 34.1677 199.365 34.2445C198.894 34.3103 198.466 34.3706 198.082 34.4254C197.26 34.546 196.542 34.7378 195.928 35.001C195.314 35.2641 194.837 35.6204 194.497 36.07C194.157 36.5085 193.987 37.0567 193.987 37.7145C193.987 38.6684 194.333 39.3975 195.024 39.9018C195.725 40.3952 196.613 40.6419 197.688 40.6419ZM224.651 45.4111C222.732 45.4111 220.994 44.9178 219.437 43.931C217.891 42.9333 216.663 41.4696 215.753 39.54C214.854 37.5994 214.405 35.2203 214.405 32.4025C214.405 29.5081 214.871 27.1015 215.803 25.1829C216.735 23.2532 217.974 21.8115 219.519 20.8576C221.076 19.8928 222.781 19.4104 224.634 19.4104C226.048 19.4104 227.227 19.6516 228.17 20.134C229.124 20.6055 229.891 21.1975 230.472 21.9102C231.064 22.6118 231.514 23.3026 231.821 23.9823H232.035V11.3191H239.024V45H232.117V40.9543H231.821C231.492 41.656 231.026 42.3522 230.423 43.043C229.831 43.7227 229.058 44.2874 228.104 44.7369C227.161 45.1864 226.01 45.4111 224.651 45.4111ZM226.871 39.836C228 39.836 228.954 39.529 229.732 38.9151C230.522 38.2901 231.125 37.4185 231.541 36.3002C231.969 35.1819 232.183 33.8717 232.183 32.3697C232.183 30.8676 231.974 29.5629 231.558 28.4556C231.141 27.3482 230.538 26.493 229.749 25.89C228.959 25.287 228 24.9855 226.871 24.9855C225.72 24.9855 224.749 25.298 223.96 25.9229C223.17 26.5479 222.573 27.414 222.167 28.5213C221.762 29.6287 221.559 30.9115 221.559 32.3697C221.559 33.8388 221.762 35.138 222.167 36.2673C222.584 37.3856 223.181 38.2627 223.96 38.8986C224.749 39.5236 225.72 39.836 226.871 39.836ZM285.352 23.1107H278.149C278.017 22.1788 277.748 21.351 277.343 20.6274C276.937 19.8928 276.416 19.2679 275.78 18.7526C275.144 18.2373 274.41 17.8426 273.577 17.5685C272.754 17.2944 271.861 17.1573 270.896 17.1573C269.153 17.1573 267.634 17.5904 266.341 18.4565C265.047 19.3117 264.044 20.5616 263.331 22.2062C262.618 23.8398 262.262 25.8242 262.262 28.1595C262.262 30.5606 262.618 32.578 263.331 34.2116C264.055 35.8452 265.063 37.0786 266.357 37.9119C267.651 38.7451 269.147 39.1618 270.847 39.1618C271.801 39.1618 272.683 39.0357 273.494 38.7835C274.317 38.5313 275.046 38.164 275.682 37.6816C276.318 37.1883 276.844 36.5907 277.261 35.889C277.688 35.1874 277.984 34.387 278.149 33.488L285.352 33.5209C285.165 35.0668 284.699 36.5578 283.954 37.9941C283.219 39.4194 282.227 40.6967 280.977 41.826C279.738 42.9443 278.258 43.8324 276.537 44.4902C274.827 45.137 272.891 45.4605 270.732 45.4605C267.727 45.4605 265.041 44.7807 262.673 43.4212C260.316 42.0617 258.452 40.0937 257.082 37.5172C255.722 34.9407 255.042 31.8215 255.042 28.1595C255.042 24.4867 255.733 21.362 257.114 18.7855C258.496 16.209 260.371 14.2464 262.739 12.8979C265.107 11.5384 267.771 10.8586 270.732 10.8586C272.683 10.8586 274.492 11.1327 276.159 11.6809C277.836 12.2291 279.322 13.0294 280.615 14.082C281.909 15.1235 282.962 16.4008 283.773 17.9138C284.595 19.4268 285.122 21.1591 285.352 23.1107ZM297.579 11.3191V45H290.458V11.3191H297.579Z" fill="white"/>
<path d="M21.9375 86H16.7578V70H22.1016C23.6693 70 25.0156 70.3203 26.1406 70.9609C27.2656 71.5964 28.1276 72.5104 28.7266 73.7031C29.3307 74.8906 29.6328 76.3151 29.6328 77.9766C29.6328 79.6432 29.3281 81.0755 28.7188 82.2734C28.1146 83.4714 27.2396 84.3932 26.0938 85.0391C24.9479 85.6797 23.5625 86 21.9375 86ZM19.1719 83.8906H21.8047C23.0234 83.8906 24.0365 83.6615 24.8438 83.2031C25.651 82.7396 26.2552 82.0703 26.6563 81.1953C27.0573 80.3151 27.2578 79.2422 27.2578 77.9766C27.2578 76.7214 27.0573 75.6562 26.6563 74.7812C26.2604 73.9062 25.6693 73.2422 24.8828 72.7891C24.0964 72.3359 23.1198 72.1094 21.9531 72.1094H19.1719V83.8906ZM37.502 86.2422C36.377 86.2422 35.3952 85.9844 34.5566 85.4687C33.7181 84.9531 33.0671 84.2318 32.6035 83.3047C32.14 82.3776 31.9082 81.2943 31.9082 80.0547C31.9082 78.8099 32.14 77.7214 32.6035 76.7891C33.0671 75.8568 33.7181 75.1328 34.5566 74.6172C35.3952 74.1016 36.377 73.8438 37.502 73.8438C38.627 73.8438 39.6087 74.1016 40.4473 74.6172C41.2858 75.1328 41.9368 75.8568 42.4004 76.7891C42.8639 77.7214 43.0957 78.8099 43.0957 80.0547C43.0957 81.2943 42.8639 82.3776 42.4004 83.3047C41.9368 84.2318 41.2858 84.9531 40.4473 85.4687C39.6087 85.9844 38.627 86.2422 37.502 86.2422ZM37.5098 84.2812C38.2389 84.2812 38.8431 84.0885 39.3223 83.7031C39.8014 83.3177 40.1556 82.8047 40.3848 82.1641C40.6191 81.5234 40.7363 80.8177 40.7363 80.0469C40.7363 79.2812 40.6191 78.5781 40.3848 77.9375C40.1556 77.2917 39.8014 76.7734 39.3223 76.3828C38.8431 75.9922 38.2389 75.7969 37.5098 75.7969C36.7754 75.7969 36.166 75.9922 35.6816 76.3828C35.2025 76.7734 34.8457 77.2917 34.6113 77.9375C34.3822 78.5781 34.2676 79.2812 34.2676 80.0469C34.2676 80.8177 34.3822 81.5234 34.6113 82.1641C34.8457 82.8047 35.2025 83.3177 35.6816 83.7031C36.166 84.0885 36.7754 84.2812 37.5098 84.2812ZM47.9395 86L44.4082 74H46.8223L49.1738 82.8125H49.291L51.6504 74H54.0645L56.4082 82.7734H56.5254L58.8613 74H61.2754L57.752 86H55.3691L52.9316 77.3359H52.752L50.3145 86H47.9395ZM65.8281 78.875V86H63.4922V74H65.7344V75.9531H65.8828C66.1589 75.3177 66.5911 74.8073 67.1797 74.4219C67.7734 74.0365 68.5208 73.8438 69.4219 73.8438C70.2396 73.8438 70.9557 74.0156 71.5703 74.3594C72.1849 74.6979 72.6615 75.2031 73 75.875C73.3385 76.5469 73.5078 77.3776 73.5078 78.3672V86H71.1719V78.6484C71.1719 77.7786 70.9453 77.099 70.4922 76.6094C70.0391 76.1146 69.4167 75.8672 68.625 75.8672C68.0833 75.8672 67.6016 75.9844 67.1797 76.2187C66.763 76.4531 66.4323 76.7969 66.1875 77.25C65.9479 77.6979 65.8281 78.2396 65.8281 78.875ZM78.9766 70V86H76.6406V70H78.9766ZM87.1738 86.2422C86.0488 86.2422 85.0671 85.9844 84.2285 85.4687C83.39 84.9531 82.7389 84.2318 82.2754 83.3047C81.8118 82.3776 81.5801 81.2943 81.5801 80.0547C81.5801 78.8099 81.8118 77.7214 82.2754 76.7891C82.7389 75.8568 83.39 75.1328 84.2285 74.6172C85.0671 74.1016 86.0488 73.8438 87.1738 73.8438C88.2988 73.8438 89.2806 74.1016 90.1191 74.6172C90.9577 75.1328 91.6087 75.8568 92.0723 76.7891C92.5358 77.7214 92.7676 78.8099 92.7676 80.0547C92.7676 81.2943 92.5358 82.3776 92.0723 83.3047C91.6087 84.2318 90.9577 84.9531 90.1191 85.4687C89.2806 85.9844 88.2988 86.2422 87.1738 86.2422ZM87.1816 84.2812C87.9108 84.2812 88.515 84.0885 88.9941 83.7031C89.4733 83.3177 89.8275 82.8047 90.0566 82.1641C90.291 81.5234 90.4082 80.8177 90.4082 80.0469C90.4082 79.2812 90.291 78.5781 90.0566 77.9375C89.8275 77.2917 89.4733 76.7734 88.9941 76.3828C88.515 75.9922 87.9108 75.7969 87.1816 75.7969C86.4473 75.7969 85.8379 75.9922 85.3535 76.3828C84.8743 76.7734 84.5176 77.2917 84.2832 77.9375C84.054 78.5781 83.9395 79.2812 83.9395 80.0469C83.9395 80.8177 84.054 81.5234 84.2832 82.1641C84.5176 82.8047 84.8743 83.3177 85.3535 83.7031C85.8379 84.0885 86.4473 84.2812 87.1816 84.2812ZM98.8672 86.2656C98.1068 86.2656 97.4193 86.125 96.8047 85.8437C96.1901 85.5573 95.7031 85.1432 95.3438 84.6016C94.9896 84.0599 94.8125 83.3958 94.8125 82.6094C94.8125 81.9323 94.9427 81.375 95.2031 80.9375C95.4635 80.5 95.8151 80.1536 96.2578 79.8984C96.7005 79.6432 97.1953 79.4505 97.7422 79.3203C98.2891 79.1901 98.8464 79.0911 99.4141 79.0234C100.133 78.9401 100.716 78.8724 101.164 78.8203C101.612 78.763 101.938 78.6719 102.141 78.5469C102.344 78.4219 102.445 78.2187 102.445 77.9375V77.8828C102.445 77.2005 102.253 76.6719 101.867 76.2969C101.487 75.9219 100.919 75.7344 100.164 75.7344C99.3776 75.7344 98.7578 75.9089 98.3047 76.2578C97.8568 76.6016 97.5469 76.9844 97.375 77.4062L95.1797 76.9062C95.4401 76.1771 95.8203 75.5885 96.3203 75.1406C96.8255 74.6875 97.4063 74.3594 98.0625 74.1562C98.7188 73.9479 99.4089 73.8438 100.133 73.8438C100.612 73.8438 101.12 73.901 101.656 74.0156C102.198 74.125 102.703 74.3281 103.172 74.625C103.646 74.9219 104.034 75.3464 104.336 75.8984C104.638 76.4453 104.789 77.1563 104.789 78.0313V86H102.508V84.3594H102.414C102.263 84.6615 102.036 84.9583 101.734 85.25C101.432 85.5417 101.044 85.7839 100.57 85.9766C100.096 86.1693 99.5286 86.2656 98.8672 86.2656ZM99.375 84.3906C100.021 84.3906 100.573 84.263 101.031 84.0078C101.495 83.7526 101.846 83.4193 102.086 83.0078C102.331 82.5911 102.453 82.1458 102.453 81.6719V80.125C102.37 80.2083 102.208 80.2865 101.969 80.3594C101.734 80.4271 101.466 80.487 101.164 80.5391C100.862 80.5859 100.568 80.6302 100.281 80.6719C99.9948 80.7083 99.7552 80.7396 99.5625 80.7656C99.1094 80.8229 98.6953 80.9193 98.3203 81.0547C97.9505 81.1901 97.6536 81.3854 97.4297 81.6406C97.2109 81.8906 97.1016 82.224 97.1016 82.6406C97.1016 83.2187 97.3151 83.6562 97.7422 83.9531C98.1693 84.2448 98.7135 84.3906 99.375 84.3906ZM112.393 86.2344C111.424 86.2344 110.559 85.987 109.799 85.4922C109.044 84.9922 108.45 84.2812 108.018 83.3594C107.59 82.4323 107.377 81.3203 107.377 80.0234C107.377 78.7266 107.593 77.6172 108.025 76.6953C108.463 75.7734 109.062 75.0677 109.822 74.5781C110.583 74.0885 111.445 73.8438 112.408 73.8438C113.153 73.8438 113.752 73.9688 114.205 74.2187C114.663 74.4635 115.018 74.75 115.268 75.0781C115.523 75.4062 115.721 75.6953 115.861 75.9453H116.002V70H118.338V86H116.057V84.1328H115.861C115.721 84.388 115.518 84.6797 115.252 85.0078C114.992 85.3359 114.632 85.6224 114.174 85.8672C113.715 86.112 113.122 86.2344 112.393 86.2344ZM112.908 84.2422C113.58 84.2422 114.148 84.0651 114.611 83.7109C115.08 83.3516 115.434 82.8542 115.674 82.2188C115.919 81.5833 116.041 80.8437 116.041 80C116.041 79.1667 115.921 78.4375 115.682 77.8125C115.442 77.1875 115.09 76.7005 114.627 76.3516C114.163 76.0026 113.59 75.8281 112.908 75.8281C112.205 75.8281 111.619 76.0104 111.15 76.375C110.682 76.7396 110.327 77.237 110.088 77.8672C109.854 78.4974 109.736 79.2083 109.736 80C109.736 80.8021 109.856 81.5234 110.096 82.1641C110.335 82.8047 110.689 83.3125 111.158 83.6875C111.632 84.0573 112.215 84.2422 112.908 84.2422ZM133.096 74V75.875H126.541V74H133.096ZM128.299 71.125H130.635V82.4766C130.635 82.9297 130.702 83.2708 130.838 83.5C130.973 83.724 131.148 83.8776 131.361 83.9609C131.58 84.0391 131.817 84.0781 132.072 84.0781C132.26 84.0781 132.424 84.0651 132.564 84.0391C132.705 84.013 132.814 83.9922 132.893 83.9766L133.314 85.9062C133.179 85.9583 132.986 86.0104 132.736 86.0625C132.486 86.1198 132.174 86.151 131.799 86.1563C131.184 86.1667 130.611 86.0573 130.08 85.8281C129.549 85.599 129.119 85.2448 128.791 84.7656C128.463 84.2865 128.299 83.6849 128.299 82.9609V71.125ZM138.273 78.875V86H135.938V70H138.242V75.9531H138.391C138.672 75.3073 139.102 74.7943 139.68 74.4141C140.258 74.0339 141.013 73.8438 141.945 73.8438C142.768 73.8438 143.487 74.013 144.102 74.3516C144.721 74.6901 145.201 75.1953 145.539 75.8672C145.883 76.5339 146.055 77.3672 146.055 78.3672V86H143.719V78.6484C143.719 77.7682 143.492 77.0859 143.039 76.6016C142.586 76.112 141.956 75.8672 141.148 75.8672C140.596 75.8672 140.102 75.9844 139.664 76.2187C139.232 76.4531 138.891 76.7969 138.641 77.25C138.396 77.6979 138.273 78.2396 138.273 78.875ZM154.344 86.2422C153.161 86.2422 152.143 85.9896 151.289 85.4844C150.44 84.974 149.784 84.2578 149.32 83.3359C148.862 82.4089 148.633 81.3229 148.633 80.0781C148.633 78.849 148.862 77.7656 149.32 76.8281C149.784 75.8906 150.43 75.1589 151.258 74.6328C152.091 74.1068 153.065 73.8438 154.18 73.8438C154.857 73.8438 155.513 73.9557 156.148 74.1797C156.784 74.4036 157.354 74.7552 157.859 75.2344C158.365 75.7135 158.763 76.3359 159.055 77.1016C159.346 77.862 159.492 78.7865 159.492 79.875V80.7031H149.953V78.9531H157.203C157.203 78.3385 157.078 77.7943 156.828 77.3203C156.578 76.8411 156.227 76.4635 155.773 76.1875C155.326 75.9115 154.799 75.7734 154.195 75.7734C153.539 75.7734 152.966 75.9349 152.477 76.2578C151.992 76.5755 151.617 76.9922 151.352 77.5078C151.091 78.0182 150.961 78.5729 150.961 79.1719V80.5391C150.961 81.3411 151.102 82.0234 151.383 82.5859C151.669 83.1484 152.068 83.5781 152.578 83.875C153.089 84.1667 153.685 84.3125 154.367 84.3125C154.81 84.3125 155.214 84.25 155.578 84.125C155.943 83.9948 156.258 83.8021 156.523 83.5469C156.789 83.2917 156.992 82.9766 157.133 82.6016L159.344 83C159.167 83.651 158.849 84.2214 158.391 84.7109C157.938 85.1953 157.367 85.5729 156.68 85.8437C155.997 86.1094 155.219 86.2422 154.344 86.2422ZM181.383 75.2031H178.945C178.852 74.6823 178.677 74.224 178.422 73.8281C178.167 73.4323 177.854 73.0964 177.484 72.8203C177.115 72.5443 176.701 72.3359 176.242 72.1953C175.789 72.0547 175.307 71.9844 174.797 71.9844C173.875 71.9844 173.049 72.2161 172.32 72.6797C171.596 73.1432 171.023 73.8229 170.602 74.7187C170.185 75.6146 169.977 76.7083 169.977 78C169.977 79.3021 170.185 80.401 170.602 81.2969C171.023 82.1927 171.599 82.8698 172.328 83.3281C173.057 83.7865 173.878 84.0156 174.789 84.0156C175.294 84.0156 175.773 83.9479 176.227 83.8125C176.685 83.6719 177.099 83.4661 177.469 83.1953C177.839 82.9245 178.151 82.5937 178.406 82.2031C178.667 81.8073 178.846 81.3542 178.945 80.8438L181.383 80.8516C181.253 81.638 181 82.362 180.625 83.0234C180.255 83.6797 179.779 84.2474 179.195 84.7266C178.617 85.2005 177.956 85.5677 177.211 85.8281C176.466 86.0885 175.654 86.2187 174.773 86.2187C173.388 86.2187 172.154 85.8906 171.07 85.2344C169.987 84.5729 169.133 83.6276 168.508 82.3984C167.888 81.1693 167.578 79.7031 167.578 78C167.578 76.2917 167.891 74.8255 168.516 73.6016C169.141 72.3724 169.995 71.4297 171.078 70.7734C172.161 70.112 173.393 69.7812 174.773 69.7812C175.622 69.7812 176.414 69.9036 177.148 70.1484C177.888 70.388 178.552 70.7422 179.141 71.2109C179.729 71.6745 180.216 72.2422 180.602 72.9141C180.987 73.5807 181.247 74.3437 181.383 75.2031ZM186.686 70V86H184.271V70H186.686ZM200.891 86.2422C199.766 86.2422 198.784 85.9844 197.945 85.4687C197.107 84.9531 196.456 84.2318 195.992 83.3047C195.529 82.3776 195.297 81.2943 195.297 80.0547C195.297 78.8099 195.529 77.7214 195.992 76.7891C196.456 75.8568 197.107 75.1328 197.945 74.6172C198.784 74.1016 199.766 73.8438 200.891 73.8438C202.016 73.8438 202.997 74.1016 203.836 74.6172C204.674 75.1328 205.326 75.8568 205.789 76.7891C206.253 77.7214 206.484 78.8099 206.484 80.0547C206.484 81.2943 206.253 82.3776 205.789 83.3047C205.326 84.2318 204.674 84.9531 203.836 85.4687C202.997 85.9844 202.016 86.2422 200.891 86.2422ZM200.898 84.2812C201.628 84.2812 202.232 84.0885 202.711 83.7031C203.19 83.3177 203.544 82.8047 203.773 82.1641C204.008 81.5234 204.125 80.8177 204.125 80.0469C204.125 79.2812 204.008 78.5781 203.773 77.9375C203.544 77.2917 203.19 76.7734 202.711 76.3828C202.232 75.9922 201.628 75.7969 200.898 75.7969C200.164 75.7969 199.555 75.9922 199.07 76.3828C198.591 76.7734 198.234 77.2917 198 77.9375C197.771 78.5781 197.656 79.2812 197.656 80.0469C197.656 80.8177 197.771 81.5234 198 82.1641C198.234 82.8047 198.591 83.3177 199.07 83.7031C199.555 84.0885 200.164 84.2812 200.898 84.2812ZM214.803 74V75.875H208.021V74H214.803ZM209.881 86V72.6094C209.881 71.8594 210.045 71.237 210.373 70.7422C210.701 70.2422 211.136 69.8698 211.678 69.625C212.219 69.375 212.808 69.25 213.443 69.25C213.912 69.25 214.313 69.2891 214.646 69.3672C214.98 69.4401 215.227 69.5078 215.389 69.5703L214.842 71.4609C214.732 71.4297 214.592 71.3932 214.42 71.3516C214.248 71.3047 214.04 71.2812 213.795 71.2812C213.227 71.2812 212.821 71.4219 212.576 71.7031C212.337 71.9844 212.217 72.3906 212.217 72.9219V86H209.881ZM231.949 74.2031C231.866 73.4635 231.522 72.8906 230.918 72.4844C230.314 72.0729 229.553 71.8672 228.637 71.8672C227.98 71.8672 227.413 71.9714 226.934 72.1797C226.454 72.3828 226.082 72.6641 225.816 73.0234C225.556 73.3776 225.426 73.7812 225.426 74.2344C225.426 74.6146 225.514 74.9427 225.691 75.2187C225.874 75.4948 226.111 75.7266 226.402 75.9141C226.699 76.0964 227.017 76.25 227.355 76.375C227.694 76.4948 228.02 76.5937 228.332 76.6719L229.895 77.0781C230.405 77.2031 230.928 77.3724 231.465 77.5859C232.001 77.7995 232.499 78.0807 232.957 78.4297C233.415 78.7786 233.785 79.2109 234.066 79.7266C234.353 80.2422 234.496 80.8594 234.496 81.5781C234.496 82.4844 234.262 83.2891 233.793 83.9922C233.329 84.6953 232.655 85.25 231.77 85.6562C230.889 86.0625 229.824 86.2656 228.574 86.2656C227.376 86.2656 226.34 86.0755 225.465 85.6953C224.59 85.3151 223.905 84.776 223.41 84.0781C222.915 83.375 222.642 82.5417 222.59 81.5781H225.012C225.059 82.1562 225.246 82.638 225.574 83.0234C225.908 83.4036 226.332 83.6875 226.848 83.875C227.368 84.0573 227.939 84.1484 228.559 84.1484C229.241 84.1484 229.848 84.0417 230.379 83.8281C230.915 83.6094 231.337 83.3073 231.645 82.9219C231.952 82.5312 232.105 82.0755 232.105 81.5547C232.105 81.0807 231.97 80.6927 231.699 80.3906C231.434 80.0885 231.072 79.8385 230.613 79.6406C230.16 79.4427 229.647 79.2682 229.074 79.1172L227.184 78.6016C225.902 78.2526 224.887 77.7396 224.137 77.0625C223.392 76.3854 223.02 75.4896 223.02 74.375C223.02 73.4531 223.27 72.6484 223.77 71.9609C224.27 71.2734 224.947 70.7396 225.801 70.3594C226.655 69.974 227.618 69.7812 228.691 69.7812C229.775 69.7812 230.73 69.9714 231.559 70.3516C232.392 70.7318 233.048 71.2552 233.527 71.9219C234.007 72.5833 234.257 73.3437 234.277 74.2031H231.949ZM237.381 86V70H239.795V77.6406H239.99L246.701 70H249.74L243.287 77.2031L249.764 86H246.857L241.686 78.8516L239.795 81.0234V86H237.381ZM257.813 86V70H263.516C264.76 70 265.792 70.2266 266.609 70.6797C267.427 71.1328 268.039 71.7526 268.445 72.5391C268.852 73.3203 269.055 74.2005 269.055 75.1797C269.055 76.1641 268.849 77.0495 268.438 77.8359C268.031 78.6172 267.417 79.237 266.594 79.6953C265.776 80.1484 264.747 80.375 263.508 80.375H259.586V78.3281H263.289C264.076 78.3281 264.714 78.1927 265.203 77.9219C265.693 77.6458 266.052 77.2708 266.281 76.7969C266.51 76.3229 266.625 75.7839 266.625 75.1797C266.625 74.5755 266.51 74.0391 266.281 73.5703C266.052 73.1016 265.69 72.7344 265.195 72.4688C264.706 72.2031 264.06 72.0703 263.258 72.0703H260.227V86H257.813ZM271.697 86V74H274.033V86H271.697ZM272.877 72.1484C272.471 72.1484 272.122 72.013 271.83 71.7422C271.544 71.4661 271.4 71.138 271.4 70.7578C271.4 70.3724 271.544 70.0443 271.83 69.7734C272.122 69.4974 272.471 69.3594 272.877 69.3594C273.283 69.3594 273.63 69.4974 273.916 69.7734C274.208 70.0443 274.354 70.3724 274.354 70.7578C274.354 71.138 274.208 71.4661 273.916 71.7422C273.63 72.013 273.283 72.1484 272.877 72.1484ZM282.23 86.2422C281.069 86.2422 280.069 85.9792 279.23 85.4531C278.397 84.9219 277.757 84.1901 277.309 83.2578C276.861 82.3255 276.637 81.2578 276.637 80.0547C276.637 78.8359 276.866 77.7604 277.324 76.8281C277.783 75.8906 278.428 75.1589 279.262 74.6328C280.095 74.1068 281.077 73.8438 282.207 73.8438C283.118 73.8438 283.931 74.013 284.645 74.3516C285.358 74.6849 285.934 75.1536 286.371 75.7578C286.814 76.362 287.077 77.0677 287.16 77.875H284.887C284.762 77.3125 284.475 76.8281 284.027 76.4219C283.585 76.0156 282.991 75.8125 282.246 75.8125C281.595 75.8125 281.025 75.9844 280.535 76.3281C280.051 76.6667 279.673 77.151 279.402 77.7812C279.132 78.4062 278.996 79.1458 278.996 80C278.996 80.875 279.129 81.6302 279.395 82.2656C279.66 82.901 280.035 83.3932 280.52 83.7422C281.009 84.0911 281.585 84.2656 282.246 84.2656C282.689 84.2656 283.09 84.1849 283.449 84.0234C283.814 83.8568 284.118 83.6198 284.363 83.3125C284.613 83.0052 284.788 82.6354 284.887 82.2031H287.16C287.077 82.9792 286.824 83.6719 286.402 84.2812C285.98 84.8906 285.415 85.3698 284.707 85.7187C284.004 86.0677 283.178 86.2422 282.23 86.2422ZM294.689 90.75C293.736 90.75 292.916 90.625 292.229 90.375C291.546 90.125 290.989 89.7943 290.557 89.3828C290.124 88.9714 289.801 88.5208 289.588 88.0313L291.596 87.2031C291.736 87.4323 291.924 87.6745 292.158 87.9297C292.398 88.1901 292.721 88.4115 293.127 88.5938C293.538 88.776 294.067 88.8672 294.713 88.8672C295.598 88.8672 296.33 88.651 296.908 88.2188C297.486 87.7917 297.775 87.1094 297.775 86.1719V83.8125H297.627C297.486 84.0677 297.283 84.3516 297.018 84.6641C296.757 84.9766 296.398 85.2474 295.939 85.4766C295.481 85.7057 294.885 85.8203 294.15 85.8203C293.202 85.8203 292.348 85.599 291.588 85.1562C290.833 84.7083 290.234 84.0495 289.791 83.1797C289.354 82.3047 289.135 81.2292 289.135 79.9531C289.135 78.6771 289.351 77.5833 289.783 76.6719C290.221 75.7604 290.82 75.0625 291.58 74.5781C292.34 74.0885 293.202 73.8438 294.166 73.8438C294.911 73.8438 295.512 73.9688 295.971 74.2187C296.429 74.4635 296.786 74.75 297.041 75.0781C297.301 75.4062 297.502 75.6953 297.643 75.9453H297.814V74H300.104V86.2656C300.104 87.2969 299.864 88.1432 299.385 88.8047C298.906 89.4661 298.257 89.9557 297.439 90.2734C296.627 90.5911 295.71 90.75 294.689 90.75ZM294.666 83.8828C295.338 83.8828 295.906 83.7266 296.369 83.4141C296.838 83.0964 297.192 82.6432 297.432 82.0547C297.676 81.4609 297.799 80.75 297.799 79.9219C297.799 79.1146 297.679 78.4036 297.439 77.7891C297.2 77.1745 296.848 76.6953 296.385 76.3516C295.921 76.0026 295.348 75.8281 294.666 75.8281C293.963 75.8281 293.377 76.0104 292.908 76.375C292.439 76.7344 292.085 77.224 291.846 77.8437C291.611 78.4635 291.494 79.1562 291.494 79.9219C291.494 80.7083 291.614 81.3984 291.854 81.9922C292.093 82.5859 292.447 83.0495 292.916 83.3828C293.39 83.7161 293.973 83.8828 294.666 83.8828ZM305.572 70V86H303.236V70H305.572ZM313.77 86.2422C312.645 86.2422 311.663 85.9844 310.824 85.4687C309.986 84.9531 309.335 84.2318 308.871 83.3047C308.408 82.3776 308.176 81.2943 308.176 80.0547C308.176 78.8099 308.408 77.7214 308.871 76.7891C309.335 75.8568 309.986 75.1328 310.824 74.6172C311.663 74.1016 312.645 73.8438 313.77 73.8438C314.895 73.8438 315.876 74.1016 316.715 74.6172C317.553 75.1328 318.204 75.8568 318.668 76.7891C319.132 77.7214 319.363 78.8099 319.363 80.0547C319.363 81.2943 319.132 82.3776 318.668 83.3047C318.204 84.2318 317.553 84.9531 316.715 85.4687C315.876 85.9844 314.895 86.2422 313.77 86.2422ZM313.777 84.2812C314.507 84.2812 315.111 84.0885 315.59 83.7031C316.069 83.3177 316.423 82.8047 316.652 82.1641C316.887 81.5234 317.004 80.8177 317.004 80.0469C317.004 79.2812 316.887 78.5781 316.652 77.9375C316.423 77.2917 316.069 76.7734 315.59 76.3828C315.111 75.9922 314.507 75.7969 313.777 75.7969C313.043 75.7969 312.434 75.9922 311.949 76.3828C311.47 76.7734 311.113 77.2917 310.879 77.9375C310.65 78.5781 310.535 79.2812 310.535 80.0469C310.535 80.8177 310.65 81.5234 310.879 82.1641C311.113 82.8047 311.47 83.3177 311.949 83.7031C312.434 84.0885 313.043 84.2812 313.777 84.2812ZM322.158 86V70H324.494V75.9453H324.635C324.77 75.6953 324.965 75.4062 325.221 75.0781C325.476 74.75 325.83 74.4635 326.283 74.2187C326.736 73.9688 327.335 73.8438 328.08 73.8438C329.049 73.8438 329.913 74.0885 330.674 74.5781C331.434 75.0677 332.031 75.7734 332.463 76.6953C332.9 77.6172 333.119 78.7266 333.119 80.0234C333.119 81.3203 332.903 82.4323 332.471 83.3594C332.038 84.2812 331.445 84.9922 330.689 85.4922C329.934 85.987 329.072 86.2344 328.104 86.2344C327.374 86.2344 326.778 86.112 326.314 85.8672C325.856 85.6224 325.497 85.3359 325.236 85.0078C324.976 84.6797 324.775 84.388 324.635 84.1328H324.439V86H322.158ZM324.447 80C324.447 80.8437 324.57 81.5833 324.814 82.2188C325.059 82.8542 325.413 83.3516 325.877 83.7109C326.34 84.0651 326.908 84.2422 327.58 84.2422C328.278 84.2422 328.861 84.0573 329.33 83.6875C329.799 83.3125 330.153 82.8047 330.393 82.1641C330.637 81.5234 330.76 80.8021 330.76 80C330.76 79.2083 330.64 78.4974 330.4 77.8672C330.166 77.237 329.812 76.7396 329.338 76.375C328.869 76.0104 328.283 75.8281 327.58 75.8281C326.903 75.8281 326.33 76.0026 325.861 76.3516C325.398 76.7005 325.046 77.1875 324.807 77.8125C324.567 78.4375 324.447 79.1667 324.447 80ZM339.234 86.2656C338.474 86.2656 337.786 86.125 337.172 85.8437C336.557 85.5573 336.07 85.1432 335.711 84.6016C335.357 84.0599 335.18 83.3958 335.18 82.6094C335.18 81.9323 335.31 81.375 335.57 80.9375C335.831 80.5 336.182 80.1536 336.625 79.8984C337.068 79.6432 337.563 79.4505 338.109 79.3203C338.656 79.1901 339.214 79.0911 339.781 79.0234C340.5 78.9401 341.083 78.8724 341.531 78.8203C341.979 78.763 342.305 78.6719 342.508 78.5469C342.711 78.4219 342.813 78.2187 342.813 77.9375V77.8828C342.813 77.2005 342.62 76.6719 342.234 76.2969C341.854 75.9219 341.286 75.7344 340.531 75.7344C339.745 75.7344 339.125 75.9089 338.672 76.2578C338.224 76.6016 337.914 76.9844 337.742 77.4062L335.547 76.9062C335.807 76.1771 336.188 75.5885 336.688 75.1406C337.193 74.6875 337.773 74.3594 338.43 74.1562C339.086 73.9479 339.776 73.8438 340.5 73.8438C340.979 73.8438 341.487 73.901 342.023 74.0156C342.565 74.125 343.07 74.3281 343.539 74.625C344.013 74.9219 344.401 75.3464 344.703 75.8984C345.005 76.4453 345.156 77.1563 345.156 78.0313V86H342.875V84.3594H342.781C342.63 84.6615 342.404 84.9583 342.102 85.25C341.799 85.5417 341.411 85.7839 340.937 85.9766C340.464 86.1693 339.896 86.2656 339.234 86.2656ZM339.742 84.3906C340.388 84.3906 340.94 84.263 341.398 84.0078C341.862 83.7526 342.214 83.4193 342.453 83.0078C342.698 82.5911 342.82 82.1458 342.82 81.6719V80.125C342.737 80.2083 342.576 80.2865 342.336 80.3594C342.102 80.4271 341.833 80.487 341.531 80.5391C341.229 80.5859 340.935 80.6302 340.648 80.6719C340.362 80.7083 340.122 80.7396 339.93 80.7656C339.477 80.8229 339.063 80.9193 338.688 81.0547C338.318 81.1901 338.021 81.3854 337.797 81.6406C337.578 81.8906 337.469 82.224 337.469 82.6406C337.469 83.2187 337.682 83.6562 338.109 83.9531C338.536 84.2448 339.081 84.3906 339.742 84.3906ZM350.604 70V86H348.268V70H350.604ZM355.285 86.1484C354.858 86.1484 354.491 85.9974 354.184 85.6953C353.876 85.388 353.723 85.0182 353.723 84.5859C353.723 84.1589 353.876 83.7943 354.184 83.4922C354.491 83.1849 354.858 83.0312 355.285 83.0312C355.712 83.0312 356.079 83.1849 356.387 83.4922C356.694 83.7943 356.848 84.1589 356.848 84.5859C356.848 84.8724 356.775 85.1354 356.629 85.375C356.488 85.6094 356.301 85.7969 356.066 85.9375C355.832 86.0781 355.572 86.1484 355.285 86.1484Z" fill="white"/>
<g filter="url(#filter0_d_4_62)">
<circle cx="52" cy="166" r="37" fill="#E0002B"/>
<g clip-path="url(#clip0_4_62)">
<path d="M38 180H66" stroke="white" stroke-width="2" stroke-linecap="round" stroke-linejoin="round"/>
<path d="M52 169.5V152" stroke="white" stroke-width="2" stroke-linecap="round" stroke-linejoin="round"/>
<path d="M52 169.5L59 162.5" stroke="white" stroke-width="2" stroke-linecap="round" stroke-linejoin="round"/>
<path d="M52 169.5L45 162.5" stroke="white" stroke-width="2" stroke-linecap="round" stroke-linejoin="round"/>
</g>
</g>
<defs>
<filter id="filter0_d_4_62" x="0" y="114" width="104" height="104" filterUnits="userSpaceOnUse" color-interpolation-filters="sRGB">
<feFlood flood-opacity="0" result="BackgroundImageFix"/>
<feColorMatrix in="SourceAlpha" type="matrix" values="0 0 0 0 0 0 0 0 0 0 0 0 0 0 0 0 0 0 127 0" result="hardAlpha"/>
<feOffset/>
<feGaussianBlur stdDeviation="7.5"/>
<feComposite in2="hardAlpha" operator="out"/>
<feColorMatrix type="matrix" values="0 0 0 0 0 0 0 0 0 0 0 0 0 0 0 0 0 0 0.25 0"/>
<feBlend mode="normal" in2="BackgroundImageFix" result="effect1_dropShadow_4_62"/>
<feBlend mode="normal" in="SourceGraphic" in2="effect1_dropShadow_4_62" result="shape"/>
</filter>
<clipPath id="clip0_4_62">
<rect width="42" height="42" fill="white" transform="translate(31 145)"/>
</clipPath>
</defs>
</svg>
