<svg width="737" height="346" viewBox="0 0 737 346" fill="none" xmlns="http://www.w3.org/2000/svg">
<path d="M26.7068 18.701C26.5422 17.2403 25.8633 16.1088 24.6701 15.3064C23.4768 14.4938 21.975 14.0875 20.1646 14.0875C18.8685 14.0875 17.7472 14.2932 16.8009 14.7047C15.8545 15.1058 15.119 15.6613 14.5944 16.3711C14.0801 17.0706 13.8229 17.8678 13.8229 18.7627C13.8229 19.5136 13.9978 20.1617 14.3475 20.7069C14.7076 21.2521 15.1756 21.7098 15.7516 22.0801C16.338 22.4402 16.9654 22.7436 17.6341 22.9905C18.3027 23.2271 18.9456 23.4225 19.5628 23.5768L22.6488 24.3792C23.6568 24.626 24.6906 24.9604 25.7502 25.3821C26.8097 25.8038 27.792 26.3593 28.6972 27.0485C29.6025 27.7377 30.3328 28.5915 30.8883 29.6099C31.454 30.6282 31.7369 31.8472 31.7369 33.2667C31.7369 35.0566 31.274 36.6459 30.3482 38.0345C29.4327 39.4232 28.1006 40.5187 26.3519 41.3211C24.6135 42.1234 22.5099 42.5246 20.0411 42.5246C17.6752 42.5246 15.6282 42.1492 13.9001 41.3982C12.1719 40.6473 10.8192 39.5827 9.84202 38.2043C8.8648 36.8156 8.32476 35.1697 8.22189 33.2667H13.0051C13.0977 34.4085 13.468 35.36 14.1161 36.1212C14.7744 36.8722 15.6128 37.4328 16.6311 37.8031C17.6598 38.1631 18.7862 38.3431 20.0103 38.3431C21.3578 38.3431 22.5562 38.1323 23.6054 37.7105C24.6649 37.2785 25.4981 36.6819 26.105 35.9207C26.7119 35.1492 27.0154 34.2491 27.0154 33.2204C27.0154 32.2844 26.7479 31.518 26.213 30.9214C25.6884 30.3248 24.9735 29.831 24.0683 29.4401C23.1734 29.0493 22.1601 28.7047 21.0286 28.4063L17.2946 27.388C14.7641 26.6988 12.7583 25.6856 11.277 24.3483C9.80602 23.0111 9.07053 21.2418 9.07053 19.0404C9.07053 17.2197 9.56428 15.6305 10.5518 14.2726C11.5393 12.9148 12.8765 11.8604 14.5635 11.1095C16.2505 10.3483 18.1535 9.96773 20.2726 9.96773C22.4122 9.96773 24.2997 10.3432 25.9353 11.0941C27.5812 11.845 28.8773 12.8788 29.8236 14.1955C30.77 15.5019 31.2637 17.0037 31.3049 18.701H26.7068ZM37.4344 42V10.3998H42.2022V25.4901H42.5879L55.8421 10.3998H61.8443L49.0993 24.626L61.8906 42H56.1507L45.9362 27.8817L42.2022 32.1712V42H37.4344ZM77.7872 42V10.3998H89.0509C91.5094 10.3998 93.5461 10.8472 95.1611 11.7422C96.7761 12.6371 97.9848 13.8612 98.7871 15.4144C99.5895 16.9574 99.9907 18.6959 99.9907 20.6297C99.9907 22.5739 99.5843 24.3226 98.7717 25.8759C97.9694 27.4188 96.7555 28.6429 95.1303 29.5481C93.5153 30.4431 91.4837 30.8905 89.0355 30.8905H81.2897V26.8479H88.6035C90.1567 26.8479 91.4168 26.5805 92.3838 26.0456C93.3507 25.5004 94.0605 24.7598 94.5131 23.8237C94.9657 22.8876 95.192 21.823 95.192 20.6297C95.192 19.4365 94.9657 18.377 94.5131 17.4512C94.0605 16.5254 93.3456 15.8002 92.3683 15.2756C91.4014 14.751 90.1259 14.4887 88.5417 14.4887H82.555V42H77.7872ZM105.21 42V18.2998H109.823V42H105.21ZM107.54 14.643C106.737 14.643 106.048 14.3755 105.472 13.8406C104.906 13.2954 104.623 12.6474 104.623 11.8964C104.623 11.1352 104.906 10.4872 105.472 9.95229C106.048 9.40711 106.737 9.13452 107.54 9.13452C108.342 9.13452 109.026 9.40711 109.592 9.95229C110.168 10.4872 110.456 11.1352 110.456 11.8964C110.456 12.6474 110.168 13.2954 109.592 13.8406C109.026 14.3755 108.342 14.643 107.54 14.643ZM126.013 42.4783C123.719 42.4783 121.744 41.9589 120.088 40.9199C118.442 39.8707 117.177 38.4254 116.292 36.5841C115.408 34.7428 114.965 32.6341 114.965 30.2579C114.965 27.8509 115.418 25.7267 116.323 23.8854C117.228 22.0338 118.504 20.5886 120.15 19.5496C121.796 18.5107 123.735 17.9912 125.967 17.9912C127.767 17.9912 129.372 18.3255 130.781 18.9942C132.19 19.6525 133.327 20.5783 134.191 21.7715C135.065 22.9648 135.585 24.3586 135.749 25.953H131.259C131.012 24.8421 130.447 23.8854 129.562 23.0831C128.688 22.2807 127.515 21.8795 126.044 21.8795C124.758 21.8795 123.632 22.219 122.665 22.8979C121.708 23.5665 120.962 24.5232 120.427 25.7678C119.893 27.0022 119.625 28.4629 119.625 30.1499C119.625 31.878 119.887 33.3696 120.412 34.6246C120.937 35.8795 121.677 36.8516 122.634 37.5408C123.601 38.23 124.737 38.5746 126.044 38.5746C126.918 38.5746 127.71 38.4151 128.42 38.0963C129.14 37.7671 129.742 37.2991 130.225 36.6921C130.719 36.0852 131.064 35.3549 131.259 34.5011H135.749C135.585 36.0338 135.086 37.4019 134.253 38.6054C133.419 39.809 132.303 40.7553 130.904 41.4445C129.516 42.1337 127.885 42.4783 126.013 42.4783ZM150.62 51.3813C148.737 51.3813 147.117 51.1344 145.759 50.6407C144.412 50.1469 143.311 49.4937 142.457 48.6811C141.604 47.8685 140.966 46.9787 140.544 46.0117L144.509 44.3762C144.787 44.8288 145.158 45.3071 145.62 45.8112C146.094 46.3255 146.731 46.7627 147.534 47.1227C148.346 47.4827 149.39 47.6627 150.666 47.6627C152.415 47.6627 153.86 47.2358 155.002 46.3821C156.144 45.5386 156.714 44.191 156.714 42.3395V37.6797H156.421C156.144 38.1837 155.742 38.7443 155.218 39.3615C154.703 39.9787 153.994 40.5136 153.088 40.9662C152.183 41.4188 151.005 41.6451 149.555 41.6451C147.683 41.6451 145.996 41.2079 144.494 40.3336C143.003 39.4489 141.82 38.1477 140.945 36.4298C140.081 34.7017 139.649 32.5775 139.649 30.0573C139.649 27.5371 140.076 25.377 140.93 23.5768C141.794 21.7767 142.977 20.3983 144.479 19.4416C145.98 18.4747 147.683 17.9912 149.586 17.9912C151.057 17.9912 152.245 18.2381 153.15 18.7319C154.055 19.2153 154.76 19.7811 155.264 20.4291C155.778 21.0772 156.174 21.6481 156.452 22.1418H156.792V18.2998H161.313V42.5246C161.313 44.5613 160.839 46.2329 159.893 47.5393C158.947 48.8457 157.666 49.8126 156.051 50.4401C154.446 51.0676 152.636 51.3813 150.62 51.3813ZM150.573 37.8185C151.9 37.8185 153.022 37.5099 153.937 36.8927C154.863 36.2653 155.562 35.3703 156.036 34.2079C156.519 33.0353 156.761 31.6312 156.761 29.9956C156.761 28.4012 156.524 26.9971 156.051 25.7833C155.578 24.5695 154.883 23.6231 153.968 22.9442C153.052 22.255 151.921 21.9104 150.573 21.9104C149.185 21.9104 148.027 22.2704 147.102 22.9905C146.176 23.7003 145.476 24.6672 145.003 25.8913C144.54 27.1154 144.309 28.4835 144.309 29.9956C144.309 31.5489 144.545 32.9118 145.019 34.0845C145.492 35.2572 146.191 36.1727 147.117 36.831C148.053 37.4894 149.205 37.8185 150.573 37.8185ZM172.113 10.3998V42H167.5V10.3998H172.113ZM188.303 42.4783C186.081 42.4783 184.142 41.9691 182.486 40.9508C180.83 39.9324 179.544 38.5077 178.629 36.6767C177.713 34.8457 177.255 32.7061 177.255 30.2579C177.255 27.7994 177.713 25.6495 178.629 23.8083C179.544 21.967 180.83 20.5371 182.486 19.5188C184.142 18.5004 186.081 17.9912 188.303 17.9912C190.525 17.9912 192.464 18.5004 194.12 19.5188C195.776 20.5371 197.062 21.967 197.978 23.8083C198.893 25.6495 199.351 27.7994 199.351 30.2579C199.351 32.7061 198.893 34.8457 197.978 36.6767C197.062 38.5077 195.776 39.9324 194.12 40.9508C192.464 41.9691 190.525 42.4783 188.303 42.4783ZM188.319 38.6054C189.759 38.6054 190.952 38.2248 191.898 37.4636C192.845 36.7024 193.544 35.6892 193.997 34.424C194.46 33.1587 194.691 31.7649 194.691 30.2425C194.691 28.7304 194.46 27.3417 193.997 26.0764C193.544 24.8009 192.845 23.7774 191.898 23.0059C190.952 22.2344 189.759 21.8487 188.319 21.8487C186.868 21.8487 185.665 22.2344 184.708 23.0059C183.762 23.7774 183.057 24.8009 182.594 26.0764C182.141 27.3417 181.915 28.7304 181.915 30.2425C181.915 31.7649 182.141 33.1587 182.594 34.424C183.057 35.6892 183.762 36.7024 184.708 37.4636C185.665 38.2248 186.868 38.6054 188.319 38.6054ZM204.871 42V10.3998H209.484V22.1418H209.762C210.03 21.6481 210.415 21.0772 210.919 20.4291C211.423 19.7811 212.123 19.2153 213.018 18.7319C213.913 18.2381 215.096 17.9912 216.567 17.9912C218.48 17.9912 220.188 18.4747 221.689 19.4416C223.191 20.4086 224.369 21.8024 225.223 23.6231C226.087 25.4438 226.519 27.6349 226.519 30.1962C226.519 32.7575 226.092 34.9537 225.238 36.7847C224.384 38.6054 223.212 40.0096 221.72 40.9971C220.229 41.9743 218.526 42.4629 216.613 42.4629C215.173 42.4629 213.995 42.2212 213.08 41.7377C212.174 41.2542 211.465 40.6885 210.95 40.0404C210.436 39.3924 210.04 38.8163 209.762 38.3123H209.376V42H204.871ZM209.392 30.1499C209.392 31.8163 209.634 33.277 210.117 34.532C210.6 35.7869 211.3 36.7693 212.215 37.4791C213.131 38.1786 214.252 38.5283 215.579 38.5283C216.958 38.5283 218.11 38.1631 219.035 37.4328C219.961 36.6921 220.661 35.6892 221.134 34.424C221.617 33.1587 221.859 31.734 221.859 30.1499C221.859 28.5864 221.623 27.1822 221.149 25.9376C220.686 24.6929 219.987 23.7105 219.051 22.9905C218.125 22.2704 216.968 21.9104 215.579 21.9104C214.242 21.9104 213.11 22.255 212.185 22.9442C211.269 23.6334 210.575 24.5952 210.102 25.8296C209.628 27.0639 209.392 28.5041 209.392 30.1499ZM238.597 42.5246C237.095 42.5246 235.737 42.2469 234.523 41.6914C233.309 41.1256 232.348 40.3079 231.638 39.2381C230.938 38.1683 230.589 36.8567 230.589 35.3035C230.589 33.9662 230.846 32.8656 231.36 32.0015C231.874 31.1374 232.569 30.4534 233.443 29.9493C234.317 29.4453 235.295 29.0647 236.375 28.8075C237.455 28.5504 238.555 28.3549 239.677 28.2212C241.096 28.0566 242.248 27.9229 243.133 27.82C244.018 27.7069 244.66 27.5268 245.062 27.28C245.463 27.0331 245.663 26.6319 245.663 26.0764V25.9684C245.663 24.6209 245.283 23.5768 244.522 22.8362C243.771 22.0956 242.649 21.7252 241.158 21.7252C239.605 21.7252 238.381 22.0698 237.486 22.759C236.601 23.4379 235.989 24.194 235.649 25.0272L231.314 24.0397C231.828 22.5996 232.579 21.4372 233.566 20.5526C234.564 19.6576 235.711 19.0096 237.007 18.6084C238.303 18.197 239.666 17.9912 241.096 17.9912C242.043 17.9912 243.046 18.1044 244.105 18.3307C245.175 18.5467 246.173 18.9479 247.098 19.5342C248.034 20.1205 248.801 20.9589 249.397 22.0493C249.994 23.1293 250.292 24.5335 250.292 26.2616V42H245.787V38.7597H245.602C245.303 39.3564 244.856 39.9427 244.259 40.5187C243.663 41.0948 242.896 41.5731 241.96 41.9537C241.024 42.3343 239.903 42.5246 238.597 42.5246ZM239.6 38.8215C240.875 38.8215 241.965 38.5694 242.871 38.0654C243.786 37.5614 244.48 36.903 244.954 36.0904C245.437 35.2675 245.679 34.388 245.679 33.4519V30.3968C245.514 30.5614 245.195 30.7157 244.722 30.8597C244.259 30.9934 243.73 31.1117 243.133 31.2146C242.536 31.3071 241.955 31.3946 241.389 31.4769C240.824 31.5489 240.35 31.6106 239.97 31.662C239.075 31.7752 238.257 31.9655 237.516 32.2329C236.786 32.5004 236.2 32.8861 235.757 33.3902C235.325 33.8839 235.109 34.5423 235.109 35.3652C235.109 36.507 235.531 37.3711 236.375 37.9574C237.218 38.5334 238.293 38.8215 239.6 38.8215ZM261.051 10.3998V42H256.437V10.3998H261.051ZM294.267 5.84933H298.829V45.6498H294.267V5.84933ZM277.669 8.80395C283.622 8.80395 287.923 14.2352 287.923 22.795C287.923 31.3547 283.622 36.8294 277.669 36.8294C271.76 36.8294 267.458 31.3547 267.458 22.795C267.458 14.2352 271.76 8.80395 277.669 8.80395ZM277.669 12.9317C274.193 12.9317 271.803 16.625 271.803 22.795C271.803 29.0084 274.193 32.7451 277.669 32.7451C281.145 32.7451 283.535 29.0084 283.535 22.795C283.535 16.625 281.145 12.9317 277.669 12.9317ZM345.737 5.84933H350.299V45.6498H345.737V5.84933ZM329.139 8.80395C335.092 8.80395 339.393 14.2352 339.393 22.795C339.393 31.3547 335.092 36.8294 329.139 36.8294C323.23 36.8294 318.928 31.3547 318.928 22.795C318.928 14.2352 323.23 8.80395 329.139 8.80395ZM329.139 12.9317C325.663 12.9317 323.273 16.625 323.273 22.795C323.273 29.0084 325.663 32.7451 329.139 32.7451C332.615 32.7451 335.005 29.0084 335.005 22.795C335.005 16.625 332.615 12.9317 329.139 12.9317ZM367.937 29.8774H372.499V44.3898H367.937V29.8774ZM386.143 5.89278H390.705V45.6064H386.143V5.89278ZM357.987 31.7023L357.465 27.9221C365.504 27.8786 374.976 27.8352 383.449 27.0531L383.709 30.3988C374.976 31.5285 365.808 31.7023 357.987 31.7023ZM377.67 33.7879H387.185V37.3074H377.67V33.7879ZM360.507 7.97839H380.537V17.7982H365.199V22.0563H360.594V14.5394H375.932V11.411H360.507V7.97839ZM360.594 21.0135H381.233V24.533H360.594V21.0135ZM426.852 5.89278H431.154V35.3086H426.852V5.89278ZM421.117 17.2333H428.069V20.97H421.117V17.2333ZM418.075 6.63143H422.333V34.092H418.075V6.63143ZM404.779 40.8703H432.283V44.5636H404.779V40.8703ZM404.779 31.3981H409.342V42.9125H404.779V31.3981ZM399.305 9.23845H403.867V24.6633H399.305V9.23845ZM399.305 23.9247H401.912C406.474 23.9247 410.645 23.7074 415.468 22.7515L415.946 26.4448C410.906 27.4441 406.648 27.6614 401.912 27.6614H399.305V23.9247Z" fill="white"/>
<g filter="url(#filter0_d_4_11)">
<path d="M76.9206 106.041H90.9374V202.903H76.9206V106.041ZM48.3641 116.083H62.1716C62.1716 145.686 52.1298 169.953 17.7155 186.585L10.4979 175.497C38.3222 162.108 48.3641 144.535 48.3641 118.594V116.083ZM15.6234 116.083H54.954V127.066H15.6234V116.083ZM143.126 106.564H154.841V108.342C154.841 124.556 140.302 137.317 115.302 140.037L110.699 129.577C132.561 127.38 143.126 117.757 143.126 108.342V106.564ZM145.532 106.564H157.352V108.342C157.352 117.757 167.917 127.38 189.674 129.577L185.072 140.037C160.072 137.317 145.532 124.556 145.532 108.342V106.564ZM143.126 152.485H157.038V165.979H143.126V152.485ZM106.41 144.012H193.963V154.891H106.41V144.012ZM116.452 161.167H183.398V186.271H130.26V194.64H116.557V176.648H169.695V171.522H116.452V161.167ZM116.557 191.815H185.908V202.276H116.557V191.815ZM274.336 122.255H299.022V133.238H274.336V122.255ZM274.336 143.071H299.441V154.054H274.336V143.071ZM294.001 106.146H307.914V177.589H294.001V106.146ZM243.792 190.142H310.006V201.23H243.792V190.142ZM243.792 170.581H257.809V196.523H243.792V170.581ZM230.926 112.422H244.733V127.171H263.144V112.422H276.742V162.422H230.926V112.422ZM244.733 137.736V151.439H263.144V137.736H244.733ZM345.458 163.363H359.37V179.054H345.458V163.363ZM386.148 106.041H400.165V202.903H386.148V106.041ZM395.249 145.372H412.299V156.878H395.249V145.372ZM323.7 186.794L322.027 175.602C338.763 175.602 361.776 175.497 381.336 172.778L382.382 182.82C361.985 186.794 340.018 186.794 323.7 186.794ZM323.805 116.711H380.813V127.589H323.805V116.711ZM352.466 131.46C366.274 131.46 376.106 138.782 376.106 149.556C376.106 160.435 366.274 167.757 352.466 167.757C338.554 167.757 328.826 160.435 328.826 149.556C328.826 138.782 338.554 131.46 352.466 131.46ZM352.466 141.92C346.085 141.92 342.006 144.64 342.006 149.556C342.006 154.577 346.085 157.297 352.466 157.297C358.742 157.297 362.926 154.577 362.926 149.556C362.926 144.64 358.742 141.92 352.466 141.92ZM345.458 106.564H359.37V124.87H345.458V106.564ZM481.224 105.937H495.241V202.799H481.224V105.937ZM491.579 142.966H508.63V154.368H491.579V142.966ZM455.805 115.978H469.404C469.404 145.058 458.316 169.953 426.098 186.167L418.358 175.602C443.776 162.422 455.805 144.64 455.805 118.384V115.978ZM423.692 115.978H462.918V127.171H423.692V115.978ZM48.3641 265.573H64.3683V276.87H48.3641V265.573ZM27.6528 241.409H38.3222V257.727C38.3222 279.694 32.2553 301.138 16.7741 310.656L8.40586 300.196C22.6318 291.409 27.6528 274.15 27.6528 257.727V241.409ZM30.6862 241.409H41.1465V257.1C41.1465 272.895 45.226 289.004 58.4059 297.581L50.8745 308.46C35.4979 298.941 30.6862 278.02 30.6862 257.1V241.409ZM80.1633 233.041H93.4478V329.903H80.1633V233.041ZM60.498 234.506H73.4687V325.51H60.498V234.506ZM127.645 238.271H139.046V246.849C139.046 266.096 130.678 283.041 112.268 289.422L104.841 278.439C121.055 272.999 127.645 260.029 127.645 246.849V238.271ZM130.469 238.271H141.766V248.209C141.766 259.819 148.251 271.117 163.419 275.824L156.201 286.598C138.733 280.74 130.469 265.677 130.469 248.209V238.271ZM168.754 233.041H182.666V290.259H168.754V233.041ZM178.795 255.426H195.532V266.932H178.795V255.426ZM151.076 292.456C171.159 292.456 183.816 299.464 183.816 311.179C183.816 322.999 171.159 329.903 151.076 329.903C130.887 329.903 118.23 322.999 118.23 311.179C118.23 299.464 130.887 292.456 151.076 292.456ZM151.076 303.23C138.733 303.23 132.038 305.845 132.038 311.179C132.038 316.619 138.733 319.129 151.076 319.129C163.419 319.129 170.009 316.619 170.009 311.179C170.009 305.845 163.419 303.23 151.076 303.23ZM246.465 234.401C268.536 234.401 281.507 240.259 281.507 250.928C281.507 261.598 268.536 267.455 246.465 267.455C224.289 267.455 211.423 261.598 211.423 250.928C211.423 240.259 224.289 234.401 246.465 234.401ZM246.465 244.547C232.448 244.547 225.858 246.64 225.858 250.928C225.858 255.426 232.448 257.309 246.465 257.309C260.482 257.309 267.072 255.426 267.072 250.928C267.072 246.64 260.482 244.547 246.465 244.547ZM202.637 271.953H290.189V282.937H202.637V271.953ZM212.679 288.376H279.624V313.271H226.486V321.849H212.783V303.648H265.921V298.732H212.679V288.376ZM212.783 318.815H282.135V329.276H212.783V318.815ZM384.997 233.041H399.014V329.903H384.997V233.041ZM395.876 269.129H413.031V280.635H395.876V269.129ZM326.002 240.677H339.809V264.213H359.265V240.677H373.073V307.518H326.002V240.677ZM339.809 274.987V296.326H359.265V274.987H339.809ZM427.04 236.702H449.634V247.686H427.04V236.702ZM445.554 236.702H459.048V241.932C459.048 248.941 459.048 259.506 454.236 273.627L440.743 271.744C445.554 257.727 445.554 248.627 445.554 241.932V236.702ZM464.801 236.702H489.697V247.686H464.801V236.702ZM483.316 236.702H496.705V242.56C496.705 249.778 496.705 260.133 492.73 274.045L479.236 272.163C483.316 258.564 483.316 249.568 483.316 242.56V236.702ZM429.341 288.794H443.148V298.418H482.374V288.794H496.182V328.857H429.341V288.794ZM443.148 309.192V317.874H482.374V309.192H443.148ZM419.404 268.606H507.061V279.694H419.404V268.606ZM455.805 275.091H469.717V293.711H455.805V275.091ZM582.576 233.041H596.488V329.903H582.576V233.041ZM520.651 242.246H534.458V302.393H520.651V242.246ZM520.651 294.234H529.228C543.35 294.234 559.04 293.188 575.044 290.05L576.613 301.556C559.981 305.008 543.977 306.054 529.228 306.054H520.651V294.234ZM673.676 232.937H687.693V330.112H673.676V232.937ZM684.555 268.815H701.71V280.217H684.555V268.815ZM615.517 295.28H623.676C639.994 295.28 652.86 294.757 667.086 292.246L668.446 303.753C653.802 306.368 640.517 306.786 623.676 306.786H615.517V295.28ZM615.517 241.932H660.706V253.125H629.325V300.824H615.517V241.932ZM719.358 321.559C716.906 321.559 714.801 320.693 713.043 318.959C711.31 317.201 710.443 315.096 710.443 312.644C710.443 310.218 711.31 308.137 713.043 306.404C714.801 304.67 716.906 303.804 719.358 303.804C721.735 303.804 723.815 304.67 725.598 306.404C727.381 308.137 728.273 310.218 728.273 312.644C728.273 314.279 727.852 315.777 727.01 317.139C726.193 318.476 725.115 319.554 723.778 320.371C722.441 321.163 720.967 321.559 719.358 321.559Z" fill="white"/>
</g>
<defs>
<filter id="filter0_d_4_11" x="0.359893" y="97.8902" width="735.96" height="240.269" filterUnits="userSpaceOnUse" color-interpolation-filters="sRGB">
<feFlood flood-opacity="0" result="BackgroundImageFix"/>
<feColorMatrix in="SourceAlpha" type="matrix" values="0 0 0 0 0 0 0 0 0 0 0 0 0 0 0 0 0 0 127 0" result="hardAlpha"/>
<feOffset/>
<feGaussianBlur stdDeviation="4.02318"/>
<feComposite in2="hardAlpha" operator="out"/>
<feColorMatrix type="matrix" values="0 0 0 0 0 0 0 0 0 0 0 0 0 0 0 0 0 0 0.3 0"/>
<feBlend mode="normal" in2="BackgroundImageFix" result="effect1_dropShadow_4_11"/>
<feBlend mode="normal" in="SourceGraphic" in2="effect1_dropShadow_4_11" result="shape"/>
</filter>
</defs>
</svg>
